<?xml version="1.0" encoding="utf-8"?>
<!-- Generator: Adobe Illustrator 25.2.1, SVG Export Plug-In . SVG Version: 6.00 Build 0)  -->
<svg version="1.1" id="Ebene_1" xmlns="http://www.w3.org/2000/svg" xmlns:xlink="http://www.w3.org/1999/xlink" x="0px" y="0px"
	 viewBox="0 0 1000 470.3" style="enable-background:new 0 0 1000 470.3;" xml:space="preserve">
<style type="text/css">
	.st0{display:none;}
	.st1{fill:#2A2A2A;}
</style>
<g id="Ebene_2_1_">
</g>
<g id="Ebene_1_1_" class="st0">
</g>
<g id="Ebene_3">
	<g>
		<path class="st1" d="M368.9,302.1c-35.1,0-63-30.4-63-67.7c0-36.7,27.8-66.1,63-66.1c35.1,0,63.5,29.4,63.5,66.1
			C432.3,271.7,404,302.1,368.9,302.1 M368.9,108.5c-68.2,0-123.8,57.7-123.8,125.9c0,69.2,55.6,127.5,123.8,127.5
			c68.7,0,124.3-58.2,124.3-127.5C493.2,166.3,437.6,108.5,368.9,108.5"/>
		<path class="st1" d="M752.8,293.7l-23.6-19.9c-4.2-3.7-11.5-2.6-15.2,1.6c-10.5,12.1-24.7,26.7-51.4,26.7
			c-37.8,0-63.5-29.4-63.5-67.1c0-37.3,26.2-66.6,64-66.6c22.6,0,36.7,10,48.3,21c4.7,4.7,10.5,7.3,15.7,1.6l22-24.1
			c5.2-5.2,7.9-12.1,2.6-17.3c-23.1-24.6-52.5-40.9-90.2-40.9C589.7,108.5,533,163.6,533,235c0,72.9,57.2,126.9,128,126.9
			c43,0,75.5-18.9,96-50.9C761.2,304.7,758.6,299,752.8,293.7"/>
		<path class="st1" d="M180,113.8h-42.5c-5.8,0-11.5,4.7-11.5,11.5v126.3l0.8,0.1H126c0,46.4-31.9,51.4-45.6,51.4
			c-18.3,0-29.5-9.6-37.3-17.9c-4.7-4.7-10.2-6-15.5-0.6L2.7,310c-3.1,3.7-3.7,8.9-1.1,13.1c8.9,11,34.1,38.3,79.7,38.3
			c61.4,0,110.2-36.7,110.2-109.6h-0.9l0.9-0.1V125.3C191.6,118.5,185.8,113.8,180,113.8"/>
		<path class="st1" d="M998.3,146.7c-8.9-11-34.1-38.3-79.7-38.3c-61.4,0-110.2,36.7-110.2,109.6h0.9l-0.9,0.1v126.3
			c0,6.8,5.8,11.5,11.5,11.5h42.5c5.8,0,11.6-4.7,11.6-11.5V218.2l-0.8-0.1h0.8c0-46.4,31.9-51.4,45.6-51.4
			c18.3,0,29.5,9.6,37.3,17.9c4.7,4.7,10.2,6,15.5,0.6l24.8-25.3C1000.4,156.1,1000.9,150.9,998.3,146.7"/>
	</g>
</g>
</svg>
